<svg width="32" height="32" viewBox="0 0 44 44" fill="none" xmlns="http://www.w3.org/2000/svg">
  <defs>
    <linearGradient id="bg" x1="0" y1="0" x2="44" y2="44" gradientUnits="userSpaceOnUse">
      <stop offset="0%" stop-color="#0a7c6f"/>
      <stop offset="100%" stop-color="#065f54"/>
    </linearGradient>
  </defs>
  <rect width="44" height="44" rx="10" fill="url(#bg)"/>
  <path d="M22 9C20.5 9 19 10 19 11.5V19H13C11.5 19 10 20.5 10 22C10 23.5 11.5 25 13 25H19V32.5C19 34 20.5 35 22 35C23.5 35 25 34 25 32.5V25H31C32.5 25 34 23.5 34 22C34 20.5 32.5 19 31 19H25V11.5C25 10 23.5 9 22 9Z" fill="white"/>
  <path d="M14 22L19 22L21 18L23 26L25 20L27 22L30 22" stroke="#0a7c6f" stroke-width="2.5" stroke-linecap="round" stroke-linejoin="round" fill="none"/>
</svg>
